<?xml version="1.0" encoding="UTF-8"?>
<svg width="356px" height="32px" viewBox="0 0 356 32" version="1.1" xmlns="http://www.w3.org/2000/svg" xmlns:xlink="http://www.w3.org/1999/xlink">
    <title>Group</title>
    <g id="Page-1" stroke="none" stroke-width="1" fill="none" fill-rule="evenodd">
        <g id="Retina-Macbook-pro" transform="translate(-797.000000, -727.000000)" fill-rule="nonzero">
            <g id="Group" transform="translate(797.000000, 727.000000)">
                <g id="luottokortit" transform="translate(57.896194, 0.000000)" fill="currentColor">
                    <polygon id="Path" points="7.98943989 0.802228412 7.98943989 23.2200557 21.3795626 23.2200557 21.3795626 31.1977716 0 31.1977716 0 0.802228412"></polygon>
                    <path d="M21.5779348,0.802228412 L29.5673747,0.802228412 L29.5673747,17.6044568 C29.5673747,19.7140204 29.864933,21.266481 30.4600495,22.2618384 C31.0551661,23.2571959 32.0966201,23.7548747 33.5844115,23.7548747 C35.1019588,23.7548747 36.1508517,23.2571959 36.7310903,22.2618384 C37.311329,21.266481 37.6014483,19.7140204 37.6014483,17.6044568 L37.6014483,0.802228412 L45.5908882,0.802228412 L45.5908882,19.4763231 C45.5908882,21.8532962 45.0404054,24 43.9394397,25.9164345 C42.8384741,27.8328691 41.3655606,29.3259053 39.5206992,30.3955432 C37.6758379,31.4651811 35.6970753,32 33.5844115,32 C31.412236,32 29.4185956,31.5023213 27.60349,30.5069638 C25.7883845,29.5116063 24.3303489,28.0631383 23.2293833,26.1615599 C22.1284176,24.2599814 21.5779348,22.0315692 21.5779348,19.4763231 L21.5779348,0.802228412 Z" id="Path"></path>
                    <path d="M76.8989789,16 C76.8989789,19.090065 76.2220338,21.8532962 74.8681436,24.2896936 C73.5142534,26.726091 71.676831,28.6202414 69.3558764,29.9721448 C67.0349218,31.3240483 64.4759206,32 61.6788727,32 C58.8818248,32 56.3228236,31.3240483 54.001869,29.9721448 C51.6809144,28.6202414 49.843492,26.726091 48.4896018,24.2896936 C47.1357116,21.8532962 46.4587665,19.090065 46.4587665,16 C46.4587665,12.909935 47.1357116,10.1467038 48.4896018,7.71030641 C49.843492,5.27390901 51.6809144,3.37975859 54.001869,2.02785515 C56.3228236,0.675951718 58.8818248,0 61.6788727,0 C64.4759206,0 67.0349218,0.675951718 69.3558764,2.02785515 C71.676831,3.37975859 73.5142534,5.27390901 74.8681436,7.71030641 C76.2220338,10.1467038 76.8989789,12.909935 76.8989789,16 Z M68.3293003,16.1337047 C68.3293003,13.637883 67.7193058,11.6843083 66.4993169,10.2729805 C65.2793279,8.86165274 63.6725132,8.15598886 61.6788727,8.15598886 C59.714988,8.15598886 58.1081733,8.8542247 56.8584285,10.2506964 C55.6086837,11.6471681 54.9838113,13.5636026 54.9838113,16 C55.0135672,18.4363974 55.6458785,20.3528319 56.8807454,21.7493036 C58.1156123,23.1457753 59.714988,23.8440111 61.6788727,23.8440111 C63.6427574,23.8440111 65.2421331,23.1606314 66.477,21.7938719 C67.7118669,20.4271123 68.3293003,18.54039 68.3293003,16.1337047 Z" id="Shape"></path>
                    <polygon id="Path" points="101.895801 0.802228412 101.895801 8.82451253 92.1389222 8.82451253 92.1389222 31.1977716 84.1048486 31.1977716 84.1048486 8.82451253 75.3120014 8.82451253 75.3120014 0.802228412"></polygon>
                    <polygon id="Path" points="126.660642 0.802228412 126.660642 8.82451253 118.135598 8.82451253 118.135598 31.1977716 110.101524 31.1977716 110.101524 8.82451253 101.308677 8.82451253 101.308677 0.802228412"></polygon>
                    <path d="M155.513877,16 C155.513877,19.090065 154.836932,21.8532962 153.483042,24.2896936 C152.129152,26.726091 150.291729,28.6202414 147.970775,29.9721448 C145.64982,31.3240483 143.090819,32 140.293771,32 C137.496723,32 134.937722,31.3240483 132.616767,29.9721448 C130.295813,28.6202414 128.45839,26.726091 127.1045,24.2896936 C125.75061,21.8532962 125.073665,19.090065 125.073665,16 C125.073665,12.909935 125.75061,10.1467038 127.1045,7.71030641 C128.45839,5.27390901 130.295813,3.37975859 132.616767,2.02785515 C134.937722,0.675951718 137.496723,0 140.293771,0 C143.090819,0 145.64982,0.675951718 147.970775,2.02785515 C150.291729,3.37975859 152.129152,5.27390901 153.483042,7.71030641 C154.836932,10.1467038 155.513877,12.909935 155.513877,16 Z M146.944199,16.1337047 C146.944199,13.637883 146.334204,11.6843083 145.114215,10.2729805 C143.894226,8.86165274 142.287411,8.15598886 140.293771,8.15598886 C138.329886,8.15598886 136.723072,8.8542247 135.473327,10.2506964 C134.223582,11.6471681 133.59871,13.5636026 133.59871,16 C133.628465,18.4363974 134.260777,20.3528319 135.495644,21.7493036 C136.730511,23.1457753 138.329886,23.8440111 140.293771,23.8440111 C142.257656,23.8440111 143.857031,23.1606314 145.091898,21.7938719 C146.326765,20.4271123 146.944199,18.54039 146.944199,16.1337047 Z" id="Shape"></path>
                    <polygon id="Path" points="164.371195 0.802228412 164.371195 12.6573816 174.145985 0.802228412 184.501013 0.802228412 171.958932 16.0445682 183.920775 31.1977716 173.744281 31.1977716 164.371195 19.3426184 164.371195 31.1977716 156.381755 31.1977716 156.381755 0.802228412"></polygon>
                    <path d="M210.453055,16 C210.453055,19.090065 209.77611,21.8532962 208.422219,24.2896936 C207.068329,26.726091 205.230907,28.6202414 202.909952,29.9721448 C200.588998,31.3240483 198.029996,32 195.232949,32 C192.435901,32 189.8769,31.3240483 187.555945,29.9721448 C185.23499,28.6202414 183.397568,26.726091 182.043678,24.2896936 C180.689788,21.8532962 180.012842,19.090065 180.012842,16 C180.012842,12.909935 180.689788,10.1467038 182.043678,7.71030641 C183.397568,5.27390901 185.23499,3.37975859 187.555945,2.02785515 C189.8769,0.675951718 192.435901,0 195.232949,0 C198.029996,0 200.588998,0.675951718 202.909952,2.02785515 C205.230907,3.37975859 207.068329,5.27390901 208.422219,7.71030641 C209.77611,10.1467038 210.453055,12.909935 210.453055,16 Z M201.883376,16.1337047 C201.883376,13.637883 201.273382,11.6843083 200.053393,10.2729805 C198.833404,8.86165274 197.226589,8.15598886 195.232949,8.15598886 C193.269064,8.15598886 191.662249,8.8542247 190.412504,10.2506964 C189.16276,11.6471681 188.537887,13.5636026 188.537887,16 C188.567643,18.4363974 189.199954,20.3528319 190.434821,21.7493036 C191.669688,23.1457753 193.269064,23.8440111 195.232949,23.8440111 C197.196833,23.8440111 198.796209,23.1606314 200.031076,21.7938719 C201.265943,20.4271123 201.883376,18.54039 201.883376,16.1337047 Z" id="Shape"></path>
                    <path d="M236.137294,11.9888579 C236.137294,14.0389972 235.646323,15.8588672 234.66438,17.448468 C233.682438,19.0380687 232.343426,20.2636955 230.647344,21.1253482 L238.59215,31.1977716 L228.415656,31.1977716 L221.497426,22.4178273 L219.310373,22.4178273 L219.310373,31.1977716 L211.320933,31.1977716 L211.320933,0.802228412 L225.246661,0.802228412 C227.270057,0.802228412 229.114918,1.30733519 230.781245,2.31754875 C232.447571,3.3277623 233.756828,4.68709378 234.709014,6.39554318 C235.661201,8.10399257 236.137294,9.96843083 236.137294,11.9888579 Z M228.147854,12.3899721 C228.147854,11.4688951 227.872613,10.6443825 227.32213,9.91643454 C226.771647,9.18848654 226.064946,8.82451253 225.202027,8.82451253 L219.310373,8.82451253 L219.310373,16 L225.202027,16 C226.064946,16 226.771647,15.636026 227.32213,14.908078 C227.872613,14.18013 228.147854,13.3407614 228.147854,12.3899721 Z" id="Shape"></path>
                    <polygon id="Path" points="261.241294 0.802228412 261.241294 8.82451253 252.71625 8.82451253 252.71625 31.1977716 244.682176 31.1977716 244.682176 8.82451253 235.889329 8.82451253 235.889329 0.802228412"></polygon>
                    <polygon id="Path" points="263.001847 31.1977716 263.001847 0.802228412 270.991287 0.802228412 270.991287 31.1977716"></polygon>
                    <polygon id="Path" points="298.103806 0.802228412 298.103806 8.82451253 289.578761 8.82451253 289.578761 31.1977716 281.544688 31.1977716 281.544688 8.82451253 272.751841 8.82451253 272.751841 0.802228412"></polygon>
                </g>
                <g id="credit-card" fill="currentColor">
                    <path d="M34.2015606,23.14 C34.1815433,23.06 34.1415087,23 34.1214913,22.94 C34.0414221,22.64 33.9813702,22.32 33.9813702,22 C33.9813702,21.66 34.0214048,21.36 34.101474,21.06 C34.101474,20.98 34.1415087,20.92 34.161526,20.86 C34.2215779,20.6 34.3216644,20.38 34.4417682,20.14 C34.4417682,20.1 34.4617855,20.06 34.4617855,20.04 C34.2816298,19.98 34.1214913,19.96 33.9413356,19.96 C32.8203668,19.96 31.9396055,20.84 31.9396055,21.96 C31.9396055,23.22 33.2207128,24.22 34.4417682,23.88 C34.4217509,23.84 34.4017336,23.8 34.4017336,23.78 C34.2816298,23.54 34.1815433,23.3 34.101474,23.06 L34.2015606,23.14 Z" id="Path"></path>
                    <path d="M38.032872,20 C37.4924048,20 37.0320069,20.2 36.6716955,20.54 C36.4715225,20.7 36.3314014,20.92 36.2112976,21.12 C36.1912803,21.14 36.171263,21.16 36.1512457,21.18 C36.0311419,21.42 35.97109,21.68 35.97109,21.96 C35.97109,22.24 36.0311419,22.5 36.1312284,22.74 C36.1312284,22.76 36.1512457,22.78 36.171263,22.8 C36.2713495,23.02 36.4114706,23.22 36.6116436,23.38 C36.9519377,23.7 37.4323529,23.92 37.9528028,23.92 C39.0537543,23.92 39.9545329,23.02 39.9545329,21.92 C39.9545329,20.8 39.0537543,19.92 37.9528028,19.92 L38.032872,20 Z" id="Path"></path>
                    <path d="M43.0371972,0 L5.00432526,0 C2.24193772,0 0,2.24 0,5 L0,27 C0,29.74 2.24594118,32 5.00432526,32 L43.0371972,32 C45.7795675,32 48.0415225,29.74 48.0415225,27 L48.0415225,5 C48.0415225,2.24 45.7795675,0 43.0371972,0 Z M15.0129758,14 L19.016436,14 C19.5569031,14 20.017301,14.44 20.017301,15 C20.017301,15.54 19.5569031,16 19.016436,16 L15.0129758,16 C14.4524913,16 14.0121107,15.54 14.0121107,15 C14.0121107,14.44 14.4524913,14 15.0129758,14 Z M7.00605536,14 L11.0095156,14 C11.5499827,14 12.0103806,14.44 12.0103806,15 C12.0103806,15.54 11.5499827,16 11.0095156,16 L7.00605536,16 C6.44557093,16 6.00519031,15.54 6.00519031,15 C6.00519031,14.44 6.44557093,14 7.00605536,14 Z M7.00605536,20 L15.0129758,20 C15.5534429,20 16.0138408,20.44 16.0138408,21 C16.0138408,21.54 15.5534429,22 15.0129758,22 L7.00605536,22 C6.44557093,22 6.00519031,21.54 6.00519031,21 C6.00519031,20.44 6.44557093,20 7.00605536,20 Z M25.0216263,26 L7.00605536,26 C6.44557093,26 6.00519031,25.54 6.00519031,25 C6.00519031,24.44 6.44557093,24 7.00605536,24 L25.0216263,24 C25.5620934,24 26.0224913,24.44 26.0224913,25 C26.0224913,25.54 25.5620934,26 25.0216263,26 Z M27.0233564,16 L23.0198962,16 C22.4594118,16 22.0190311,15.54 22.0190311,15 C22.0190311,14.44 22.4594118,14 23.0198962,14 L27.0233564,14 C27.5638235,14 28.0242215,14.44 28.0242215,15 C28.0242215,15.54 27.5638235,16 27.0233564,16 Z M38.032872,26 C37.2922318,26 36.6116436,25.78 36.0311419,25.44 C35.4106055,25.78 34.7300173,25.98 34.0093945,25.98 C31.787474,25.98 30.0059343,24.18 30.0059343,21.98 C30.0059343,19.76 31.787474,17.98 34.0093945,17.98 C34.71,17.98 35.3905882,18.16 36.0111246,18.52 C36.5916263,18.16 37.2722145,17.96 37.9928374,17.96 C40.1947405,17.96 41.9962976,19.74 41.9962976,21.96 C41.9962976,24.16 40.1947405,25.96 37.9928374,25.96 L38.032872,26 Z" id="Shape"></path>
                </g>
            </g>
        </g>
    </g>
</svg>
